<svg xmlns="http://www.w3.org/2000/svg" xmlns:xlink="http://www.w3.org/1999/xlink" width="450" zoomAndPan="magnify" viewBox="0 0 337.5 70.499998" height="94" preserveAspectRatio="xMidYMid meet" version="1.2"><defs><clipPath id="78ac27befe"><path d="M 3.535156 0.339844 L 73.199219 0.339844 L 73.199219 70.003906 L 3.535156 70.003906 Z M 3.535156 0.339844 "/></clipPath><clipPath id="d093f0df66"><path d="M 38.367188 0.339844 C 19.132812 0.339844 3.535156 15.933594 3.535156 35.171875 C 3.535156 54.410156 19.132812 70.003906 38.367188 70.003906 C 57.605469 70.003906 73.199219 54.410156 73.199219 35.171875 C 73.199219 15.933594 57.605469 0.339844 38.367188 0.339844 Z M 38.367188 0.339844 "/></clipPath><clipPath id="b313c9e076"><path d="M 0.941406 19 L 76 19 L 76 56 L 0.941406 56 Z M 0.941406 19 "/></clipPath><clipPath id="998dea8b5c"><path d="M 24.492188 53.679688 C 18.742188 54.914062 10.488281 56.230469 4.890625 54.183594 C 2.746094 53.378906 0.910156 51.703125 0.941406 49.210938 C 1.0625 43.589844 9.339844 37.804688 13.6875 35.007812 C 21.742188 29.929688 30.585938 26.242188 39.644531 23.363281 C 48.492188 20.605469 59.375 17.757812 68.617188 20 C 71.503906 20.734375 74.589844 22.371094 75.542969 25.429688 C 77.902344 32.953125 62.804688 41.035156 57.164062 43.585938 C 54.511719 44.796875 51.800781 45.863281 49.027344 46.714844 C 49.027344 46.714844 48.765625 46.15625 48.765625 46.15625 C 51.183594 44.582031 53.5625 43.003906 55.875 41.351562 C 60.316406 38.125 64.839844 34.714844 68.359375 30.503906 C 68.757812 30.003906 69.128906 29.503906 69.433594 29.015625 C 69.8125 28.375 70.125 27.824219 70.167969 27.238281 C 70.167969 27.152344 70.136719 27.152344 70.140625 27.222656 C 70.136719 27.242188 70.140625 27.257812 70.144531 27.273438 C 70.144531 27.273438 70.140625 27.273438 70.140625 27.269531 C 70.140625 27.269531 70.113281 27.238281 70.113281 27.238281 C 70.097656 27.21875 70.074219 27.199219 70.050781 27.171875 C 68.050781 25.445312 62.1875 25.585938 59.515625 25.699219 C 44.261719 26.445312 29.058594 30.976562 15.589844 38.210938 C 11.984375 40.230469 8.429688 42.453125 5.609375 45.4375 C 5.164062 45.925781 4.753906 46.429688 4.410156 46.949219 C 3.5 48.28125 2.898438 50 4.242188 51.222656 C 4.636719 51.605469 5.160156 51.933594 5.730469 52.207031 C 7.574219 53.054688 9.605469 53.378906 11.652344 53.574219 C 15.890625 53.929688 20.152344 53.609375 24.386719 53.070312 C 24.386719 53.070312 24.492188 53.679688 24.492188 53.679688 Z M 24.492188 53.679688 "/></clipPath><clipPath id="98466ba048"><path d="M 26 9.640625 L 48 9.640625 L 48 36 L 26 36 Z M 26 9.640625 "/></clipPath><clipPath id="ab6de31b1a"><path d="M 26 35 L 48 35 L 48 60.976562 L 26 60.976562 Z M 26 35 "/></clipPath></defs><g id="ac9363a4b3"><g clip-rule="nonzero" clip-path="url(#78ac27befe)"><g clip-rule="nonzero" clip-path="url(#d093f0df66)"><path style=" stroke:none;fill-rule:nonzero;fill:#deffcf;fill-opacity:1;" d="M 3.535156 0.339844 L 73.199219 0.339844 L 73.199219 70.003906 L 3.535156 70.003906 Z M 3.535156 0.339844 "/></g></g><g clip-rule="nonzero" clip-path="url(#b313c9e076)"><g clip-rule="nonzero" clip-path="url(#998dea8b5c)"><path style=" stroke:none;fill-rule:nonzero;fill:#006537;fill-opacity:1;" d="M 0.941406 17.757812 L 0.941406 56.230469 L 76.082031 56.230469 L 76.082031 17.757812 Z M 0.941406 17.757812 "/></g></g><g clip-rule="nonzero" clip-path="url(#98466ba048)"><path style=" stroke:none;fill-rule:nonzero;fill:#006537;fill-opacity:1;" d="M 47.691406 20.347656 C 47.691406 14.445312 42.90625 9.664062 37.007812 9.664062 C 31.105469 9.664062 26.324219 14.445312 26.324219 20.347656 L 26.324219 35.171875 L 47.691406 35.171875 Z M 47.691406 20.347656 "/></g><g clip-rule="nonzero" clip-path="url(#ab6de31b1a)"><path style=" stroke:none;fill-rule:nonzero;fill:#5fc33a;fill-opacity:1;" d="M 26.324219 35.171875 L 26.324219 49.992188 C 26.324219 55.894531 31.105469 60.675781 37.007812 60.675781 C 42.90625 60.675781 47.691406 55.894531 47.691406 49.992188 L 47.691406 35.171875 Z M 26.324219 35.171875 "/></g><g style="fill:#deffcf;fill-opacity:1;"><g transform="translate(84.285874, 37.939613)"><path style="stroke:none" d="M 16.234375 -5.53125 C 17.171875 -5.53125 18.078125 -5.671875 18.953125 -5.953125 C 19.835938 -6.234375 20.484375 -6.503906 20.890625 -6.765625 L 21.515625 -7.1875 L 24.109375 -1.984375 C 24.023438 -1.921875 23.90625 -1.832031 23.75 -1.71875 C 23.601562 -1.613281 23.253906 -1.414062 22.703125 -1.125 C 22.148438 -0.832031 21.554688 -0.578125 20.921875 -0.359375 C 20.296875 -0.140625 19.472656 0.0507812 18.453125 0.21875 C 17.429688 0.394531 16.378906 0.484375 15.296875 0.484375 C 12.796875 0.484375 10.425781 -0.125 8.1875 -1.34375 C 5.957031 -2.570312 4.160156 -4.257812 2.796875 -6.40625 C 1.429688 -8.5625 0.75 -10.882812 0.75 -13.375 C 0.75 -15.257812 1.148438 -17.070312 1.953125 -18.8125 C 2.753906 -20.550781 3.820312 -22.035156 5.15625 -23.265625 C 6.488281 -24.503906 8.046875 -25.492188 9.828125 -26.234375 C 11.609375 -26.972656 13.429688 -27.34375 15.296875 -27.34375 C 17.035156 -27.34375 18.632812 -27.132812 20.09375 -26.71875 C 21.5625 -26.3125 22.597656 -25.898438 23.203125 -25.484375 L 24.109375 -24.859375 L 21.515625 -19.65625 C 21.359375 -19.789062 21.128906 -19.945312 20.828125 -20.125 C 20.523438 -20.3125 19.914062 -20.554688 19 -20.859375 C 18.09375 -21.160156 17.171875 -21.3125 16.234375 -21.3125 C 14.765625 -21.3125 13.441406 -21.070312 12.265625 -20.59375 C 11.097656 -20.125 10.171875 -19.5 9.484375 -18.71875 C 8.804688 -17.9375 8.285156 -17.09375 7.921875 -16.1875 C 7.566406 -15.289062 7.390625 -14.375 7.390625 -13.4375 C 7.390625 -11.394531 8.15625 -9.566406 9.6875 -7.953125 C 11.21875 -6.335938 13.398438 -5.53125 16.234375 -5.53125 Z M 16.234375 -5.53125 "/></g></g><g style="fill:#deffcf;fill-opacity:1;"><g transform="translate(108.795973, 37.939613)"><path style="stroke:none" d="M 8.078125 -26.84375 L 8.078125 -5.375 L 17.3125 -5.375 L 17.3125 0 L 1.953125 0 L 1.953125 -26.84375 Z M 8.078125 -26.84375 "/></g></g><g style="fill:#deffcf;fill-opacity:1;"><g transform="translate(127.186679, 37.939613)"><path style="stroke:none" d="M 0.75 -13.4375 C 0.75 -17.320312 2.070312 -20.609375 4.71875 -23.296875 C 7.363281 -25.992188 10.550781 -27.34375 14.28125 -27.34375 C 18.039062 -27.34375 21.234375 -26 23.859375 -23.3125 C 26.484375 -20.632812 27.796875 -17.34375 27.796875 -13.4375 C 27.796875 -9.507812 26.503906 -6.207031 23.921875 -3.53125 C 21.335938 -0.851562 18.125 0.484375 14.28125 0.484375 C 10.351562 0.484375 7.113281 -0.84375 4.5625 -3.5 C 2.019531 -6.15625 0.75 -9.46875 0.75 -13.4375 Z M 7.359375 -13.4375 C 7.359375 -12.03125 7.570312 -10.742188 8 -9.578125 C 8.4375 -8.421875 9.195312 -7.441406 10.28125 -6.640625 C 11.363281 -5.835938 12.695312 -5.4375 14.28125 -5.4375 C 16.5625 -5.4375 18.28125 -6.21875 19.4375 -7.78125 C 20.601562 -9.34375 21.1875 -11.226562 21.1875 -13.4375 C 21.1875 -15.632812 20.59375 -17.519531 19.40625 -19.09375 C 18.226562 -20.664062 16.519531 -21.453125 14.28125 -21.453125 C 12.070312 -21.453125 10.363281 -20.664062 9.15625 -19.09375 C 7.957031 -17.519531 7.359375 -15.632812 7.359375 -13.4375 Z M 7.359375 -13.4375 "/></g></g><g style="fill:#deffcf;fill-opacity:1;"><g transform="translate(155.732964, 37.939613)"><path style="stroke:none" d="M 22.59375 -26.84375 L 22.59375 -9.53125 C 22.59375 -6.238281 21.703125 -3.742188 19.921875 -2.046875 C 18.140625 -0.359375 15.535156 0.484375 12.109375 0.484375 C 8.679688 0.484375 6.078125 -0.359375 4.296875 -2.046875 C 2.515625 -3.742188 1.625 -6.238281 1.625 -9.53125 L 1.625 -26.84375 L 7.75 -26.84375 L 7.75 -11.328125 C 7.75 -9.160156 8.085938 -7.648438 8.765625 -6.796875 C 9.453125 -5.953125 10.566406 -5.53125 12.109375 -5.53125 C 13.648438 -5.53125 14.757812 -5.953125 15.4375 -6.796875 C 16.125 -7.648438 16.46875 -9.160156 16.46875 -11.328125 L 16.46875 -26.84375 Z M 22.59375 -26.84375 "/></g></g><g style="fill:#deffcf;fill-opacity:1;"><g transform="translate(179.950114, 37.939613)"><path style="stroke:none" d="M 1.953125 -26.84375 L 9.734375 -26.84375 C 13.460938 -26.84375 16.648438 -25.566406 19.296875 -23.015625 C 21.941406 -20.472656 23.265625 -17.28125 23.265625 -13.4375 C 23.265625 -9.582031 21.945312 -6.378906 19.3125 -3.828125 C 16.675781 -1.273438 13.484375 0 9.734375 0 L 1.953125 0 Z M 8.078125 -5.46875 L 9.015625 -5.46875 C 11.253906 -5.46875 13.082031 -6.21875 14.5 -7.71875 C 15.914062 -9.226562 16.632812 -11.125 16.65625 -13.40625 C 16.65625 -15.6875 15.945312 -17.585938 14.53125 -19.109375 C 13.113281 -20.628906 11.273438 -21.390625 9.015625 -21.390625 L 8.078125 -21.390625 Z M 8.078125 -5.46875 "/></g></g><g style="fill:#deffcf;fill-opacity:1;"><g transform="translate(203.971957, 37.939613)"><path style="stroke:none" d="M 17.484375 -26.84375 L 17.484375 -21.484375 L 8.078125 -21.484375 L 8.078125 -16.140625 L 16.765625 -16.140625 L 16.765625 -10.765625 L 8.078125 -10.765625 L 8.078125 0 L 1.953125 0 L 1.953125 -26.84375 Z M 17.484375 -26.84375 "/></g></g><g style="fill:#deffcf;fill-opacity:1;"><g transform="translate(222.427765, 37.939613)"><path style="stroke:none" d="M 15.59375 -26.84375 L 26.421875 0 L 19.859375 0 L 17.875 -5.375 L 7.65625 -5.375 L 5.65625 0 L -0.90625 0 L 9.921875 -26.84375 Z M 15.78125 -10.734375 L 12.796875 -18.546875 L 12.71875 -18.546875 L 9.734375 -10.734375 Z M 15.78125 -10.734375 "/></g></g><g style="fill:#deffcf;fill-opacity:1;"><g transform="translate(247.946905, 37.939613)"><path style="stroke:none" d="M 1.953125 -26.84375 L 11.546875 -26.84375 C 14.128906 -26.84375 16.234375 -26.15625 17.859375 -24.78125 C 19.492188 -23.40625 20.3125 -21.4375 20.3125 -18.875 C 20.3125 -16.90625 19.816406 -15.25 18.828125 -13.90625 C 17.835938 -12.570312 16.5 -11.632812 14.8125 -11.09375 L 24.046875 0 L 16.265625 0 L 8.078125 -10.609375 L 8.078125 0 L 1.953125 0 Z M 8.078125 -14.9375 L 8.78125 -14.9375 C 9.351562 -14.9375 9.832031 -14.945312 10.21875 -14.96875 C 10.613281 -14.988281 11.054688 -15.0625 11.546875 -15.1875 C 12.046875 -15.320312 12.445312 -15.507812 12.75 -15.75 C 13.0625 -15.988281 13.320312 -16.335938 13.53125 -16.796875 C 13.75 -17.253906 13.859375 -17.804688 13.859375 -18.453125 C 13.859375 -19.109375 13.75 -19.660156 13.53125 -20.109375 C 13.320312 -20.566406 13.0625 -20.914062 12.75 -21.15625 C 12.445312 -21.394531 12.046875 -21.578125 11.546875 -21.703125 C 11.054688 -21.835938 10.613281 -21.914062 10.21875 -21.9375 C 9.832031 -21.957031 9.351562 -21.96875 8.78125 -21.96875 L 8.078125 -21.96875 Z M 8.078125 -14.9375 "/></g></g><g style="fill:#deffcf;fill-opacity:1;"><g transform="translate(271.252656, 37.939613)"><path style="stroke:none" d="M 24.15625 0 L 22.875 -15.921875 L 22.71875 -15.921875 L 17.21875 -0.15625 L 13.578125 -0.15625 L 8.078125 -15.921875 L 7.90625 -15.921875 L 6.640625 0 L 0.515625 0 L 2.921875 -26.84375 L 9.4375 -26.84375 L 15.390625 -11.359375 L 21.34375 -26.84375 L 27.859375 -26.84375 L 30.265625 0 Z M 24.15625 0 "/></g></g><g style="fill:#deffcf;fill-opacity:1;"><g transform="translate(302.044881, 37.939613)"><path style="stroke:none" d="M 15.59375 -26.84375 L 26.421875 0 L 19.859375 0 L 17.875 -5.375 L 7.65625 -5.375 L 5.65625 0 L -0.90625 0 L 9.921875 -26.84375 Z M 15.78125 -10.734375 L 12.796875 -18.546875 L 12.71875 -18.546875 L 9.734375 -10.734375 Z M 15.78125 -10.734375 "/></g></g><g style="fill:#deffcf;fill-opacity:1;"><g transform="translate(106.407917, 59.043962)"><path style="stroke:none" d="M 7.265625 -8.265625 C 7.222656 -8.679688 7.050781 -9.003906 6.75 -9.234375 C 6.457031 -9.472656 6.03125 -9.59375 5.46875 -9.59375 C 5.101562 -9.59375 4.796875 -9.546875 4.546875 -9.453125 C 4.304688 -9.359375 4.125 -9.226562 4 -9.0625 C 3.875 -8.894531 3.8125 -8.703125 3.8125 -8.484375 C 3.800781 -8.304688 3.832031 -8.148438 3.90625 -8.015625 C 3.988281 -7.890625 4.101562 -7.773438 4.25 -7.671875 C 4.40625 -7.566406 4.585938 -7.472656 4.796875 -7.390625 C 5.015625 -7.316406 5.257812 -7.253906 5.53125 -7.203125 L 6.546875 -6.96875 C 7.128906 -6.84375 7.644531 -6.671875 8.09375 -6.453125 C 8.539062 -6.242188 8.914062 -5.992188 9.21875 -5.703125 C 9.53125 -5.410156 9.765625 -5.070312 9.921875 -4.6875 C 10.078125 -4.3125 10.15625 -3.890625 10.15625 -3.421875 C 10.15625 -2.671875 9.96875 -2.03125 9.59375 -1.5 C 9.21875 -0.96875 8.679688 -0.554688 7.984375 -0.265625 C 7.296875 0.015625 6.457031 0.15625 5.46875 0.15625 C 4.476562 0.15625 3.617188 0.0078125 2.890625 -0.28125 C 2.160156 -0.582031 1.585938 -1.035156 1.171875 -1.640625 C 0.765625 -2.242188 0.554688 -3.003906 0.546875 -3.921875 L 3.28125 -3.921875 C 3.300781 -3.546875 3.398438 -3.226562 3.578125 -2.96875 C 3.765625 -2.71875 4.015625 -2.523438 4.328125 -2.390625 C 4.648438 -2.265625 5.019531 -2.203125 5.4375 -2.203125 C 5.820312 -2.203125 6.148438 -2.253906 6.421875 -2.359375 C 6.691406 -2.460938 6.898438 -2.601562 7.046875 -2.78125 C 7.191406 -2.96875 7.265625 -3.179688 7.265625 -3.421875 C 7.265625 -3.648438 7.195312 -3.84375 7.0625 -4 C 6.925781 -4.15625 6.71875 -4.289062 6.4375 -4.40625 C 6.164062 -4.53125 5.8125 -4.640625 5.375 -4.734375 L 4.140625 -5.03125 C 3.117188 -5.257812 2.316406 -5.632812 1.734375 -6.15625 C 1.148438 -6.6875 0.859375 -7.398438 0.859375 -8.296875 C 0.859375 -9.023438 1.050781 -9.660156 1.4375 -10.203125 C 1.832031 -10.753906 2.378906 -11.179688 3.078125 -11.484375 C 3.785156 -11.796875 4.585938 -11.953125 5.484375 -11.953125 C 6.390625 -11.953125 7.179688 -11.796875 7.859375 -11.484375 C 8.535156 -11.179688 9.054688 -10.75 9.421875 -10.1875 C 9.796875 -9.632812 9.988281 -8.992188 10 -8.265625 Z M 7.265625 -8.265625 "/></g></g><g style="fill:#deffcf;fill-opacity:1;"><g transform="translate(117.866515, 59.043962)"><path style="stroke:none" d="M 3.4375 0 L 0.375 0 L 4.359375 -11.796875 L 8.15625 -11.796875 L 12.140625 0 L 9.078125 0 L 6.296875 -8.828125 L 6.203125 -8.828125 Z M 3.03125 -4.640625 L 9.4375 -4.640625 L 9.4375 -2.484375 L 3.03125 -2.484375 Z M 3.03125 -4.640625 "/></g></g><g style="fill:#deffcf;fill-opacity:1;"><g transform="translate(131.127793, 59.043962)"><path style="stroke:none" d="M 0.890625 0 L 0.890625 -11.796875 L 3.75 -11.796875 L 3.75 -2.3125 L 8.65625 -2.3125 L 8.65625 0 Z M 0.890625 0 "/></g></g><g style="fill:#deffcf;fill-opacity:1;"><g transform="translate(141.106229, 59.043962)"><path style="stroke:none" d="M 8.03125 -11.796875 L 10.875 -11.796875 L 10.875 -4.1875 C 10.875 -3.3125 10.664062 -2.546875 10.25 -1.890625 C 9.832031 -1.242188 9.25 -0.738281 8.5 -0.375 C 7.75 -0.0195312 6.878906 0.15625 5.890625 0.15625 C 4.890625 0.15625 4.015625 -0.0195312 3.265625 -0.375 C 2.515625 -0.738281 1.929688 -1.242188 1.515625 -1.890625 C 1.097656 -2.546875 0.890625 -3.3125 0.890625 -4.1875 L 0.890625 -11.796875 L 3.75 -11.796875 L 3.75 -4.4375 C 3.75 -4.03125 3.835938 -3.664062 4.015625 -3.34375 C 4.191406 -3.03125 4.441406 -2.78125 4.765625 -2.59375 C 5.085938 -2.414062 5.460938 -2.328125 5.890625 -2.328125 C 6.316406 -2.328125 6.6875 -2.414062 7 -2.59375 C 7.320312 -2.78125 7.570312 -3.03125 7.75 -3.34375 C 7.9375 -3.664062 8.03125 -4.03125 8.03125 -4.4375 Z M 8.03125 -11.796875 "/></g></g><g style="fill:#deffcf;fill-opacity:1;"><g transform="translate(153.61879, 59.043962)"><path style="stroke:none" d="M 5.25 0 L 0.890625 0 L 0.890625 -11.796875 L 5.25 -11.796875 C 6.445312 -11.796875 7.476562 -11.5625 8.34375 -11.09375 C 9.21875 -10.625 9.890625 -9.945312 10.359375 -9.0625 C 10.835938 -8.175781 11.078125 -7.125 11.078125 -5.90625 C 11.078125 -4.675781 10.84375 -3.617188 10.375 -2.734375 C 9.90625 -1.847656 9.234375 -1.171875 8.359375 -0.703125 C 7.484375 -0.234375 6.445312 0 5.25 0 Z M 3.75 -2.4375 L 5.140625 -2.4375 C 5.804688 -2.4375 6.367188 -2.546875 6.828125 -2.765625 C 7.285156 -2.992188 7.628906 -3.359375 7.859375 -3.859375 C 8.097656 -4.367188 8.21875 -5.050781 8.21875 -5.90625 C 8.21875 -6.75 8.097656 -7.421875 7.859375 -7.921875 C 7.617188 -8.429688 7.265625 -8.796875 6.796875 -9.015625 C 6.335938 -9.242188 5.773438 -9.359375 5.109375 -9.359375 L 3.75 -9.359375 Z M 3.75 -2.4375 "/></g></g><g style="fill:#deffcf;fill-opacity:1;"><g transform="translate(166.206223, 59.043962)"><path style="stroke:none" d=""/></g></g><g style="fill:#deffcf;fill-opacity:1;"><g transform="translate(170.442586, 59.043962)"><path style="stroke:none" d="M 3.4375 0 L 0.375 0 L 4.359375 -11.796875 L 8.15625 -11.796875 L 12.140625 0 L 9.078125 0 L 6.296875 -8.828125 L 6.203125 -8.828125 Z M 3.03125 -4.640625 L 9.4375 -4.640625 L 9.4375 -2.484375 L 3.03125 -2.484375 Z M 3.03125 -4.640625 "/></g></g><g style="fill:#deffcf;fill-opacity:1;"><g transform="translate(183.703864, 59.043962)"><path style="stroke:none" d=""/></g></g><g style="fill:#deffcf;fill-opacity:1;"><g transform="translate(187.940227, 59.043962)"><path style="stroke:none" d="M 0.890625 0 L 0.890625 -11.796875 L 5.8125 -11.796875 C 6.695312 -11.796875 7.4375 -11.671875 8.03125 -11.421875 C 8.625 -11.171875 9.070312 -10.820312 9.375 -10.375 C 9.675781 -9.925781 9.828125 -9.40625 9.828125 -8.8125 C 9.828125 -8.363281 9.734375 -7.960938 9.546875 -7.609375 C 9.359375 -7.253906 9.097656 -6.960938 8.765625 -6.734375 C 8.441406 -6.503906 8.0625 -6.34375 7.625 -6.25 L 7.625 -6.140625 C 8.101562 -6.117188 8.546875 -5.988281 8.953125 -5.75 C 9.359375 -5.519531 9.679688 -5.195312 9.921875 -4.78125 C 10.171875 -4.363281 10.296875 -3.867188 10.296875 -3.296875 C 10.296875 -2.660156 10.132812 -2.09375 9.8125 -1.59375 C 9.488281 -1.101562 9.019531 -0.710938 8.40625 -0.421875 C 7.800781 -0.140625 7.0625 0 6.1875 0 Z M 3.75 -2.296875 L 5.5 -2.296875 C 6.125 -2.296875 6.582031 -2.410156 6.875 -2.640625 C 7.164062 -2.878906 7.3125 -3.207031 7.3125 -3.625 C 7.3125 -3.925781 7.238281 -4.1875 7.09375 -4.40625 C 6.957031 -4.632812 6.757812 -4.804688 6.5 -4.921875 C 6.238281 -5.046875 5.925781 -5.109375 5.5625 -5.109375 L 3.75 -5.109375 Z M 3.75 -6.953125 L 5.328125 -6.953125 C 5.628906 -6.953125 5.898438 -7 6.140625 -7.09375 C 6.390625 -7.195312 6.582031 -7.347656 6.71875 -7.546875 C 6.851562 -7.742188 6.921875 -7.984375 6.921875 -8.265625 C 6.921875 -8.660156 6.78125 -8.96875 6.5 -9.1875 C 6.21875 -9.414062 5.84375 -9.53125 5.375 -9.53125 L 3.75 -9.53125 Z M 3.75 -6.953125 "/></g></g><g style="fill:#deffcf;fill-opacity:1;"><g transform="translate(199.456413, 59.043962)"><path style="stroke:none" d="M 3.4375 0 L 0.375 0 L 4.359375 -11.796875 L 8.15625 -11.796875 L 12.140625 0 L 9.078125 0 L 6.296875 -8.828125 L 6.203125 -8.828125 Z M 3.03125 -4.640625 L 9.4375 -4.640625 L 9.4375 -2.484375 L 3.03125 -2.484375 Z M 3.03125 -4.640625 "/></g></g><g style="fill:#deffcf;fill-opacity:1;"><g transform="translate(212.717691, 59.043962)"><path style="stroke:none" d="M 5.6875 -11.796875 L 8.5 -11.796875 L 8.5 -3.640625 C 8.488281 -2.878906 8.300781 -2.210938 7.9375 -1.640625 C 7.582031 -1.066406 7.085938 -0.625 6.453125 -0.3125 C 5.816406 0 5.082031 0.15625 4.25 0.15625 C 3.507812 0.15625 2.835938 0.03125 2.234375 -0.21875 C 1.640625 -0.476562 1.164062 -0.878906 0.8125 -1.421875 C 0.457031 -1.960938 0.28125 -2.65625 0.28125 -3.5 L 3.125 -3.5 C 3.132812 -3.195312 3.191406 -2.9375 3.296875 -2.71875 C 3.398438 -2.507812 3.546875 -2.347656 3.734375 -2.234375 C 3.921875 -2.128906 4.144531 -2.078125 4.40625 -2.078125 C 4.6875 -2.078125 4.921875 -2.132812 5.109375 -2.25 C 5.296875 -2.375 5.4375 -2.550781 5.53125 -2.78125 C 5.625 -3.007812 5.675781 -3.296875 5.6875 -3.640625 Z M 5.6875 -11.796875 "/></g></g><g style="fill:#deffcf;fill-opacity:1;"><g transform="translate(222.851638, 59.043962)"><path style="stroke:none" d="M 12.03125 -5.890625 C 12.03125 -4.597656 11.78125 -3.5 11.28125 -2.59375 C 10.78125 -1.695312 10.101562 -1.015625 9.25 -0.546875 C 8.40625 -0.078125 7.453125 0.15625 6.390625 0.15625 C 5.328125 0.15625 4.367188 -0.078125 3.515625 -0.546875 C 2.671875 -1.015625 2 -1.695312 1.5 -2.59375 C 1.007812 -3.5 0.765625 -4.597656 0.765625 -5.890625 C 0.765625 -7.191406 1.007812 -8.289062 1.5 -9.1875 C 2 -10.09375 2.671875 -10.78125 3.515625 -11.25 C 4.367188 -11.71875 5.328125 -11.953125 6.390625 -11.953125 C 7.453125 -11.953125 8.40625 -11.71875 9.25 -11.25 C 10.101562 -10.78125 10.78125 -10.09375 11.28125 -9.1875 C 11.78125 -8.289062 12.03125 -7.191406 12.03125 -5.890625 Z M 9.109375 -5.890625 C 9.109375 -6.660156 9 -7.3125 8.78125 -7.84375 C 8.5625 -8.375 8.25 -8.773438 7.84375 -9.046875 C 7.445312 -9.316406 6.960938 -9.453125 6.390625 -9.453125 C 5.828125 -9.453125 5.34375 -9.316406 4.9375 -9.046875 C 4.53125 -8.773438 4.21875 -8.375 4 -7.84375 C 3.78125 -7.3125 3.671875 -6.660156 3.671875 -5.890625 C 3.671875 -5.128906 3.78125 -4.484375 4 -3.953125 C 4.21875 -3.421875 4.53125 -3.019531 4.9375 -2.75 C 5.34375 -2.476562 5.828125 -2.34375 6.390625 -2.34375 C 6.960938 -2.34375 7.445312 -2.476562 7.84375 -2.75 C 8.25 -3.019531 8.5625 -3.421875 8.78125 -3.953125 C 9 -4.484375 9.109375 -5.128906 9.109375 -5.890625 Z M 9.109375 -5.890625 "/></g></g><g style="fill:#deffcf;fill-opacity:1;"><g transform="translate(236.389358, 59.043962)"><path style="stroke:none" d=""/></g></g><g style="fill:#deffcf;fill-opacity:1;"><g transform="translate(240.625721, 59.043962)"><path style="stroke:none" d="M 0.890625 0 L 0.890625 -11.796875 L 5.765625 -11.796875 C 6.648438 -11.796875 7.410156 -11.625 8.046875 -11.28125 C 8.691406 -10.9375 9.1875 -10.457031 9.53125 -9.84375 C 9.882812 -9.226562 10.0625 -8.519531 10.0625 -7.71875 C 10.0625 -6.894531 9.882812 -6.179688 9.53125 -5.578125 C 9.175781 -4.972656 8.671875 -4.5 8.015625 -4.15625 C 7.359375 -3.820312 6.578125 -3.65625 5.671875 -3.65625 L 2.671875 -3.65625 L 2.671875 -5.90625 L 5.15625 -5.90625 C 5.582031 -5.90625 5.9375 -5.976562 6.21875 -6.125 C 6.507812 -6.28125 6.726562 -6.492188 6.875 -6.765625 C 7.03125 -7.035156 7.109375 -7.351562 7.109375 -7.71875 C 7.109375 -8.082031 7.03125 -8.394531 6.875 -8.65625 C 6.726562 -8.925781 6.507812 -9.132812 6.21875 -9.28125 C 5.925781 -9.425781 5.570312 -9.5 5.15625 -9.5 L 3.75 -9.5 L 3.75 0 Z M 0.890625 0 "/></g></g><g style="fill:#deffcf;fill-opacity:1;"><g transform="translate(251.946092, 59.043962)"><path style="stroke:none" d="M 0.890625 0 L 0.890625 -11.796875 L 5.765625 -11.796875 C 6.648438 -11.796875 7.410156 -11.632812 8.046875 -11.3125 C 8.691406 -11 9.1875 -10.546875 9.53125 -9.953125 C 9.882812 -9.367188 10.0625 -8.675781 10.0625 -7.875 C 10.0625 -7.050781 9.882812 -6.351562 9.53125 -5.78125 C 9.175781 -5.21875 8.671875 -4.785156 8.015625 -4.484375 C 7.359375 -4.179688 6.578125 -4.03125 5.671875 -4.03125 L 2.59375 -4.03125 L 2.59375 -6.28125 L 5.15625 -6.28125 C 5.582031 -6.28125 5.9375 -6.335938 6.21875 -6.453125 C 6.507812 -6.566406 6.726562 -6.738281 6.875 -6.96875 C 7.03125 -7.195312 7.109375 -7.5 7.109375 -7.875 C 7.109375 -8.238281 7.03125 -8.539062 6.875 -8.78125 C 6.726562 -9.019531 6.507812 -9.195312 6.21875 -9.3125 C 5.925781 -9.4375 5.570312 -9.5 5.15625 -9.5 L 3.75 -9.5 L 3.75 0 Z M 7.53125 -5.390625 L 10.46875 0 L 7.359375 0 L 4.484375 -5.390625 Z M 7.53125 -5.390625 "/></g></g><g style="fill:#deffcf;fill-opacity:1;"><g transform="translate(263.427729, 59.043962)"><path style="stroke:none" d="M 0.890625 0 L 0.890625 -11.796875 L 9.125 -11.796875 L 9.125 -9.484375 L 3.75 -9.484375 L 3.75 -7.0625 L 8.703125 -7.0625 L 8.703125 -4.734375 L 3.75 -4.734375 L 3.75 -2.3125 L 9.125 -2.3125 L 9.125 0 Z M 0.890625 0 "/></g></g><g style="fill:#deffcf;fill-opacity:1;"><g transform="translate(274.183686, 59.043962)"><path style="stroke:none" d="M 11.59375 -7.515625 L 8.71875 -7.515625 C 8.675781 -7.816406 8.597656 -8.082031 8.484375 -8.3125 C 8.367188 -8.550781 8.210938 -8.753906 8.015625 -8.921875 C 7.816406 -9.097656 7.582031 -9.226562 7.3125 -9.3125 C 7.050781 -9.40625 6.757812 -9.453125 6.4375 -9.453125 C 5.863281 -9.453125 5.367188 -9.3125 4.953125 -9.03125 C 4.546875 -8.75 4.226562 -8.34375 4 -7.8125 C 3.78125 -7.289062 3.671875 -6.648438 3.671875 -5.890625 C 3.671875 -5.109375 3.78125 -4.453125 4 -3.921875 C 4.226562 -3.398438 4.546875 -3.003906 4.953125 -2.734375 C 5.367188 -2.472656 5.859375 -2.34375 6.421875 -2.34375 C 6.734375 -2.34375 7.019531 -2.378906 7.28125 -2.453125 C 7.539062 -2.535156 7.769531 -2.65625 7.96875 -2.8125 C 8.164062 -2.96875 8.328125 -3.15625 8.453125 -3.375 C 8.578125 -3.601562 8.664062 -3.859375 8.71875 -4.140625 L 11.59375 -4.125 C 11.550781 -3.601562 11.398438 -3.085938 11.140625 -2.578125 C 10.890625 -2.078125 10.546875 -1.617188 10.109375 -1.203125 C 9.671875 -0.785156 9.140625 -0.453125 8.515625 -0.203125 C 7.890625 0.0351562 7.171875 0.15625 6.359375 0.15625 C 5.285156 0.15625 4.328125 -0.078125 3.484375 -0.546875 C 2.648438 -1.015625 1.988281 -1.695312 1.5 -2.59375 C 1.007812 -3.5 0.765625 -4.597656 0.765625 -5.890625 C 0.765625 -7.191406 1.007812 -8.289062 1.5 -9.1875 C 2 -10.09375 2.671875 -10.78125 3.515625 -11.25 C 4.359375 -11.71875 5.304688 -11.953125 6.359375 -11.953125 C 7.078125 -11.953125 7.738281 -11.851562 8.34375 -11.65625 C 8.945312 -11.457031 9.476562 -11.171875 9.9375 -10.796875 C 10.394531 -10.421875 10.769531 -9.957031 11.0625 -9.40625 C 11.351562 -8.851562 11.53125 -8.222656 11.59375 -7.515625 Z M 11.59375 -7.515625 "/></g></g><g style="fill:#deffcf;fill-opacity:1;"><g transform="translate(287.26067, 59.043962)"><path style="stroke:none" d="M 3.75 -11.796875 L 3.75 0 L 0.890625 0 L 0.890625 -11.796875 Z M 3.75 -11.796875 "/></g></g><g style="fill:#deffcf;fill-opacity:1;"><g transform="translate(292.643144, 59.043962)"><path style="stroke:none" d="M 12.03125 -5.890625 C 12.03125 -4.597656 11.78125 -3.5 11.28125 -2.59375 C 10.78125 -1.695312 10.101562 -1.015625 9.25 -0.546875 C 8.40625 -0.078125 7.453125 0.15625 6.390625 0.15625 C 5.328125 0.15625 4.367188 -0.078125 3.515625 -0.546875 C 2.671875 -1.015625 2 -1.695312 1.5 -2.59375 C 1.007812 -3.5 0.765625 -4.597656 0.765625 -5.890625 C 0.765625 -7.191406 1.007812 -8.289062 1.5 -9.1875 C 2 -10.09375 2.671875 -10.78125 3.515625 -11.25 C 4.367188 -11.71875 5.328125 -11.953125 6.390625 -11.953125 C 7.453125 -11.953125 8.40625 -11.71875 9.25 -11.25 C 10.101562 -10.78125 10.78125 -10.09375 11.28125 -9.1875 C 11.78125 -8.289062 12.03125 -7.191406 12.03125 -5.890625 Z M 9.109375 -5.890625 C 9.109375 -6.660156 9 -7.3125 8.78125 -7.84375 C 8.5625 -8.375 8.25 -8.773438 7.84375 -9.046875 C 7.445312 -9.316406 6.960938 -9.453125 6.390625 -9.453125 C 5.828125 -9.453125 5.34375 -9.316406 4.9375 -9.046875 C 4.53125 -8.773438 4.21875 -8.375 4 -7.84375 C 3.78125 -7.3125 3.671875 -6.660156 3.671875 -5.890625 C 3.671875 -5.128906 3.78125 -4.484375 4 -3.953125 C 4.21875 -3.421875 4.53125 -3.019531 4.9375 -2.75 C 5.34375 -2.476562 5.828125 -2.34375 6.390625 -2.34375 C 6.960938 -2.34375 7.445312 -2.476562 7.84375 -2.75 C 8.25 -3.019531 8.5625 -3.421875 8.78125 -3.953125 C 9 -4.484375 9.109375 -5.128906 9.109375 -5.890625 Z M 9.109375 -5.890625 "/></g></g></g></svg>