<svg xmlns="http://www.w3.org/2000/svg" xmlns:xlink="http://www.w3.org/1999/xlink" width="500" zoomAndPan="magnify" viewBox="0 0 375 374.999991" height="500" preserveAspectRatio="xMidYMid meet" version="1.2"><defs><clipPath id="85c2e1d962"><path d="M 79.871094 20.992188 L 295.128906 20.992188 L 295.128906 236.25 L 79.871094 236.25 Z M 79.871094 20.992188 "/></clipPath><clipPath id="b2ca3e28b3"><path d="M 187.5 20.992188 C 128.058594 20.992188 79.871094 69.179688 79.871094 128.621094 C 79.871094 188.0625 128.058594 236.25 187.5 236.25 C 246.941406 236.25 295.128906 188.0625 295.128906 128.621094 C 295.128906 69.179688 246.941406 20.992188 187.5 20.992188 Z M 187.5 20.992188 "/></clipPath><clipPath id="48a505ace6"><path d="M 71.847656 79 L 303.644531 79 L 303.644531 191 L 71.847656 191 Z M 71.847656 79 "/></clipPath><clipPath id="2320734627"><path d="M 144.628906 185.808594 C 126.855469 189.625 101.351562 193.683594 84.054688 187.359375 C 77.433594 184.875 71.761719 179.691406 71.847656 171.996094 C 72.222656 154.628906 97.800781 136.746094 111.238281 128.109375 C 136.128906 112.414062 163.453125 101.03125 191.4375 92.132812 C 218.773438 83.605469 252.40625 74.816406 280.964844 81.738281 C 289.878906 84.011719 299.421875 89.066406 302.367188 98.519531 C 309.648438 121.761719 263.003906 146.738281 245.574219 154.621094 C 237.375 158.359375 229.003906 161.652344 220.429688 164.285156 C 220.429688 164.285156 219.625 162.554688 219.625 162.554688 C 227.09375 157.695312 234.453125 152.820312 241.59375 147.714844 C 255.316406 137.742188 269.292969 127.203125 280.171875 114.199219 C 281.402344 112.65625 282.550781 111.109375 283.484375 109.589844 C 284.660156 107.621094 285.625 105.914062 285.761719 104.101562 C 285.757812 103.832031 285.664062 103.84375 285.667969 104.058594 C 285.664062 104.113281 285.671875 104.164062 285.679688 104.214844 C 285.679688 104.214844 285.671875 104.207031 285.667969 104.207031 C 285.667969 104.207031 285.589844 104.109375 285.589844 104.109375 C 285.535156 104.042969 285.46875 103.980469 285.386719 103.902344 C 279.210938 98.5625 261.101562 98.996094 252.839844 99.34375 C 205.703125 101.648438 158.730469 115.660156 117.113281 138.003906 C 105.980469 144.25 94.992188 151.117188 86.28125 160.339844 C 84.902344 161.839844 83.636719 163.398438 82.566406 165.003906 C 79.761719 169.125 77.902344 174.441406 82.054688 178.214844 C 83.265625 179.398438 84.886719 180.410156 86.65625 181.25 C 92.34375 183.867188 98.625 184.875 104.949219 185.472656 C 118.042969 186.570312 131.214844 185.585938 144.292969 183.925781 C 144.292969 183.925781 144.621094 185.804688 144.621094 185.804688 Z M 144.628906 185.808594 "/></clipPath><clipPath id="d2177a5dda"><path d="M 150 49.738281 L 217 49.738281 L 217 129 L 150 129 Z M 150 49.738281 "/></clipPath><clipPath id="86e9ec9dec"><path d="M 150 128 L 217 128 L 217 207.878906 L 150 207.878906 Z M 150 128 "/></clipPath></defs><g id="620280a86a"><g clip-rule="nonzero" clip-path="url(#85c2e1d962)"><g clip-rule="nonzero" clip-path="url(#b2ca3e28b3)"><path style=" stroke:none;fill-rule:nonzero;fill:#deffcf;fill-opacity:1;" d="M 79.871094 20.992188 L 295.128906 20.992188 L 295.128906 236.25 L 79.871094 236.25 Z M 79.871094 20.992188 "/></g></g><g clip-rule="nonzero" clip-path="url(#48a505ace6)"><g clip-rule="nonzero" clip-path="url(#2320734627)"><path style=" stroke:none;fill-rule:nonzero;fill:#006537;fill-opacity:1;" d="M 71.847656 74.816406 L 71.847656 193.683594 L 303.644531 193.683594 L 303.644531 74.816406 Z M 71.847656 74.816406 "/></g></g><g clip-rule="nonzero" clip-path="url(#d2177a5dda)"><path style=" stroke:none;fill-rule:nonzero;fill:#006537;fill-opacity:1;" d="M 216.304688 82.8125 C 216.304688 64.582031 201.523438 49.800781 183.292969 49.800781 C 165.0625 49.800781 150.28125 64.582031 150.28125 82.8125 L 150.28125 128.613281 L 216.308594 128.613281 L 216.308594 82.8125 Z M 216.304688 82.8125 "/></g><g clip-rule="nonzero" clip-path="url(#86e9ec9dec)"><path style=" stroke:none;fill-rule:nonzero;fill:#5fc33a;fill-opacity:1;" d="M 150.28125 128.613281 L 150.28125 174.414062 C 150.28125 192.644531 165.0625 207.425781 183.292969 207.425781 C 201.523438 207.425781 216.304688 192.644531 216.304688 174.414062 L 216.304688 128.613281 Z M 150.28125 128.613281 "/></g><g style="fill:#006537;fill-opacity:1;"><g transform="translate(0.489778, 307.759989)"><path style="stroke:none" d="M 24.75 -8.4375 C 26.164062 -8.4375 27.539062 -8.648438 28.875 -9.078125 C 30.21875 -9.503906 31.207031 -9.914062 31.84375 -10.3125 L 32.78125 -10.953125 L 36.75 -3.03125 C 36.613281 -2.925781 36.429688 -2.789062 36.203125 -2.625 C 35.972656 -2.457031 35.4375 -2.148438 34.59375 -1.703125 C 33.75 -1.265625 32.847656 -0.878906 31.890625 -0.546875 C 30.929688 -0.210938 29.671875 0.0820312 28.109375 0.34375 C 26.554688 0.613281 24.957031 0.75 23.3125 0.75 C 19.507812 0.75 15.90625 -0.179688 12.5 -2.046875 C 9.09375 -3.921875 6.347656 -6.492188 4.265625 -9.765625 C 2.179688 -13.046875 1.140625 -16.585938 1.140625 -20.390625 C 1.140625 -23.265625 1.75 -26.019531 2.96875 -28.65625 C 4.195312 -31.300781 5.828125 -33.566406 7.859375 -35.453125 C 9.890625 -37.335938 12.257812 -38.84375 14.96875 -39.96875 C 17.6875 -41.09375 20.46875 -41.65625 23.3125 -41.65625 C 25.957031 -41.65625 28.394531 -41.34375 30.625 -40.71875 C 32.851562 -40.09375 34.429688 -39.460938 35.359375 -38.828125 L 36.75 -37.890625 L 32.78125 -29.953125 C 32.550781 -30.148438 32.203125 -30.390625 31.734375 -30.671875 C 31.273438 -30.953125 30.347656 -31.320312 28.953125 -31.78125 C 27.566406 -32.25 26.164062 -32.484375 24.75 -32.484375 C 22.5 -32.484375 20.476562 -32.117188 18.6875 -31.390625 C 16.90625 -30.660156 15.492188 -29.703125 14.453125 -28.515625 C 13.410156 -27.328125 12.613281 -26.046875 12.0625 -24.671875 C 11.519531 -23.296875 11.25 -21.898438 11.25 -20.484375 C 11.25 -17.378906 12.414062 -14.59375 14.75 -12.125 C 17.082031 -9.664062 20.414062 -8.4375 24.75 -8.4375 Z M 24.75 -8.4375 "/></g></g><g style="fill:#006537;fill-opacity:1;"><g transform="translate(37.833964, 307.759989)"><path style="stroke:none" d="M 12.296875 -40.921875 L 12.296875 -8.1875 L 26.390625 -8.1875 L 26.390625 0 L 2.96875 0 L 2.96875 -40.921875 Z M 12.296875 -40.921875 "/></g></g><g style="fill:#006537;fill-opacity:1;"><g transform="translate(65.854494, 307.759989)"><path style="stroke:none" d="M 1.140625 -20.484375 C 1.140625 -26.398438 3.15625 -31.40625 7.1875 -35.5 C 11.21875 -39.601562 16.078125 -41.65625 21.765625 -41.65625 C 27.484375 -41.65625 32.34375 -39.613281 36.34375 -35.53125 C 40.351562 -31.445312 42.359375 -26.429688 42.359375 -20.484375 C 42.359375 -14.492188 40.390625 -9.457031 36.453125 -5.375 C 32.515625 -1.289062 27.617188 0.75 21.765625 0.75 C 15.785156 0.75 10.851562 -1.273438 6.96875 -5.328125 C 3.082031 -9.378906 1.140625 -14.429688 1.140625 -20.484375 Z M 11.203125 -20.484375 C 11.203125 -18.335938 11.53125 -16.378906 12.1875 -14.609375 C 12.851562 -12.835938 14.015625 -11.335938 15.671875 -10.109375 C 17.328125 -8.890625 19.359375 -8.28125 21.765625 -8.28125 C 25.242188 -8.28125 27.863281 -9.46875 29.625 -11.84375 C 31.394531 -14.226562 32.28125 -17.109375 32.28125 -20.484375 C 32.28125 -23.816406 31.378906 -26.679688 29.578125 -29.078125 C 27.773438 -31.484375 25.171875 -32.6875 21.765625 -32.6875 C 18.398438 -32.6875 15.796875 -31.484375 13.953125 -29.078125 C 12.117188 -26.679688 11.203125 -23.816406 11.203125 -20.484375 Z M 11.203125 -20.484375 "/></g></g><g style="fill:#006537;fill-opacity:1;"><g transform="translate(109.348312, 307.759989)"><path style="stroke:none" d="M 34.421875 -40.921875 L 34.421875 -14.53125 C 34.421875 -9.507812 33.0625 -5.707031 30.34375 -3.125 C 27.632812 -0.539062 23.664062 0.75 18.4375 0.75 C 13.21875 0.75 9.253906 -0.539062 6.546875 -3.125 C 3.835938 -5.707031 2.484375 -9.507812 2.484375 -14.53125 L 2.484375 -40.921875 L 11.796875 -40.921875 L 11.796875 -17.265625 C 11.796875 -13.953125 12.316406 -11.648438 13.359375 -10.359375 C 14.398438 -9.078125 16.09375 -8.4375 18.4375 -8.4375 C 20.789062 -8.4375 22.488281 -9.078125 23.53125 -10.359375 C 24.570312 -11.648438 25.09375 -13.953125 25.09375 -17.265625 L 25.09375 -40.921875 Z M 34.421875 -40.921875 "/></g></g><g style="fill:#006537;fill-opacity:1;"><g transform="translate(146.246153, 307.759989)"><path style="stroke:none" d="M 2.96875 -40.921875 L 14.828125 -40.921875 C 20.515625 -40.921875 25.375 -38.976562 29.40625 -35.09375 C 33.4375 -31.207031 35.453125 -26.335938 35.453125 -20.484375 C 35.453125 -14.597656 33.441406 -9.710938 29.421875 -5.828125 C 25.410156 -1.941406 20.546875 0 14.828125 0 L 2.96875 0 Z M 12.296875 -8.328125 L 13.734375 -8.328125 C 17.140625 -8.328125 19.925781 -9.472656 22.09375 -11.765625 C 24.257812 -14.066406 25.359375 -16.957031 25.390625 -20.4375 C 25.390625 -23.90625 24.304688 -26.796875 22.140625 -29.109375 C 19.972656 -31.421875 17.171875 -32.578125 13.734375 -32.578125 L 12.296875 -32.578125 Z M 12.296875 -8.328125 "/></g></g><g style="fill:#006537;fill-opacity:1;"><g transform="translate(182.846421, 307.759989)"><path style="stroke:none" d="M 26.625 -40.921875 L 26.625 -32.734375 L 12.296875 -32.734375 L 12.296875 -24.59375 L 25.546875 -24.59375 L 25.546875 -16.421875 L 12.296875 -16.421875 L 12.296875 0 L 2.96875 0 L 2.96875 -40.921875 Z M 26.625 -40.921875 "/></g></g><g style="fill:#006537;fill-opacity:1;"><g transform="translate(210.966142, 307.759989)"><path style="stroke:none" d="M 23.75 -40.921875 L 40.265625 0 L 30.25 0 L 27.234375 -8.1875 L 11.65625 -8.1875 L 8.625 0 L -1.390625 0 L 15.125 -40.921875 Z M 24.046875 -16.359375 L 19.484375 -28.265625 L 19.390625 -28.265625 L 14.828125 -16.359375 Z M 24.046875 -16.359375 "/></g></g><g style="fill:#006537;fill-opacity:1;"><g transform="translate(249.847728, 307.759989)"><path style="stroke:none" d="M 2.96875 -40.921875 L 17.609375 -40.921875 C 21.535156 -40.921875 24.738281 -39.867188 27.21875 -37.765625 C 29.707031 -35.660156 30.953125 -32.660156 30.953125 -28.765625 C 30.953125 -25.753906 30.195312 -23.234375 28.6875 -21.203125 C 27.1875 -19.171875 25.144531 -17.738281 22.5625 -16.90625 L 36.65625 0 L 24.796875 0 L 12.296875 -16.171875 L 12.296875 0 L 2.96875 0 Z M 12.296875 -22.765625 L 13.390625 -22.765625 C 14.253906 -22.765625 14.984375 -22.78125 15.578125 -22.8125 C 16.171875 -22.84375 16.847656 -22.957031 17.609375 -23.15625 C 18.367188 -23.351562 18.976562 -23.632812 19.4375 -24 C 19.90625 -24.363281 20.300781 -24.890625 20.625 -25.578125 C 20.957031 -26.273438 21.125 -27.117188 21.125 -28.109375 C 21.125 -29.109375 20.957031 -29.953125 20.625 -30.640625 C 20.300781 -31.335938 19.90625 -31.867188 19.4375 -32.234375 C 18.976562 -32.597656 18.367188 -32.878906 17.609375 -33.078125 C 16.847656 -33.273438 16.171875 -33.390625 15.578125 -33.421875 C 14.984375 -33.453125 14.253906 -33.46875 13.390625 -33.46875 L 12.296875 -33.46875 Z M 12.296875 -22.765625 "/></g></g><g style="fill:#006537;fill-opacity:1;"><g transform="translate(285.35694, 307.759989)"><path style="stroke:none" d="M 36.796875 0 L 34.859375 -24.25 L 34.609375 -24.25 L 26.234375 -0.25 L 20.6875 -0.25 L 12.296875 -24.25 L 12.046875 -24.25 L 10.109375 0 L 0.796875 0 L 4.46875 -40.921875 L 14.375 -40.921875 L 23.453125 -17.3125 L 32.53125 -40.921875 L 42.453125 -40.921875 L 46.125 0 Z M 36.796875 0 "/></g></g><g style="fill:#006537;fill-opacity:1;"><g transform="translate(332.272726, 307.759989)"><path style="stroke:none" d="M 23.75 -40.921875 L 40.265625 0 L 30.25 0 L 27.234375 -8.1875 L 11.65625 -8.1875 L 8.625 0 L -1.390625 0 L 15.125 -40.921875 Z M 24.046875 -16.359375 L 19.484375 -28.265625 L 19.390625 -28.265625 L 14.828125 -16.359375 Z M 24.046875 -16.359375 "/></g></g><g style="fill:#006537;fill-opacity:1;"><g transform="translate(34.195461, 339.915076)"><path style="stroke:none" d="M 11.078125 -12.59375 C 11.015625 -13.226562 10.753906 -13.722656 10.296875 -14.078125 C 9.835938 -14.441406 9.1875 -14.625 8.34375 -14.625 C 7.78125 -14.625 7.3125 -14.550781 6.9375 -14.40625 C 6.5625 -14.257812 6.28125 -14.0625 6.09375 -13.8125 C 5.90625 -13.5625 5.804688 -13.269531 5.796875 -12.9375 C 5.785156 -12.664062 5.835938 -12.425781 5.953125 -12.21875 C 6.078125 -12.019531 6.253906 -11.84375 6.484375 -11.6875 C 6.722656 -11.53125 7.003906 -11.394531 7.328125 -11.28125 C 7.660156 -11.164062 8.03125 -11.0625 8.4375 -10.96875 L 9.984375 -10.625 C 10.867188 -10.425781 11.648438 -10.164062 12.328125 -9.84375 C 13.015625 -9.519531 13.585938 -9.132812 14.046875 -8.6875 C 14.515625 -8.25 14.867188 -7.738281 15.109375 -7.15625 C 15.347656 -6.582031 15.472656 -5.9375 15.484375 -5.21875 C 15.472656 -4.082031 15.179688 -3.109375 14.609375 -2.296875 C 14.046875 -1.484375 13.234375 -0.859375 12.171875 -0.421875 C 11.117188 0.015625 9.84375 0.234375 8.34375 0.234375 C 6.832031 0.234375 5.519531 0.0078125 4.40625 -0.4375 C 3.289062 -0.894531 2.421875 -1.582031 1.796875 -2.5 C 1.179688 -3.414062 0.863281 -4.578125 0.84375 -5.984375 L 5 -5.984375 C 5.039062 -5.410156 5.195312 -4.925781 5.46875 -4.53125 C 5.738281 -4.144531 6.113281 -3.851562 6.59375 -3.65625 C 7.082031 -3.457031 7.644531 -3.359375 8.28125 -3.359375 C 8.875 -3.359375 9.375 -3.4375 9.78125 -3.59375 C 10.195312 -3.75 10.515625 -3.96875 10.734375 -4.25 C 10.953125 -4.53125 11.066406 -4.851562 11.078125 -5.21875 C 11.066406 -5.5625 10.957031 -5.851562 10.75 -6.09375 C 10.550781 -6.332031 10.238281 -6.539062 9.8125 -6.71875 C 9.394531 -6.90625 8.859375 -7.070312 8.203125 -7.21875 L 6.3125 -7.65625 C 4.757812 -8.019531 3.535156 -8.597656 2.640625 -9.390625 C 1.742188 -10.191406 1.300781 -11.273438 1.3125 -12.640625 C 1.300781 -13.753906 1.597656 -14.726562 2.203125 -15.5625 C 2.804688 -16.394531 3.640625 -17.046875 4.703125 -17.515625 C 5.765625 -17.984375 6.976562 -18.21875 8.34375 -18.21875 C 9.738281 -18.21875 10.945312 -17.984375 11.96875 -17.515625 C 13 -17.046875 13.796875 -16.382812 14.359375 -15.53125 C 14.929688 -14.6875 15.222656 -13.707031 15.234375 -12.59375 Z M 11.078125 -12.59375 "/></g></g><g style="fill:#006537;fill-opacity:1;"><g transform="translate(51.654059, 339.915076)"><path style="stroke:none" d="M 5.25 0 L 0.578125 0 L 6.640625 -17.984375 L 12.421875 -17.984375 L 18.5 0 L 13.828125 0 L 9.609375 -13.453125 L 9.46875 -13.453125 Z M 4.625 -7.078125 L 14.390625 -7.078125 L 14.390625 -3.78125 L 4.625 -3.78125 Z M 4.625 -7.078125 "/></g></g><g style="fill:#006537;fill-opacity:1;"><g transform="translate(71.859265, 339.915076)"><path style="stroke:none" d="M 1.359375 0 L 1.359375 -17.984375 L 5.703125 -17.984375 L 5.703125 -3.53125 L 13.1875 -3.53125 L 13.1875 0 Z M 1.359375 0 "/></g></g><g style="fill:#006537;fill-opacity:1;"><g transform="translate(87.062653, 339.915076)"><path style="stroke:none" d="M 12.234375 -17.984375 L 16.578125 -17.984375 L 16.578125 -6.375 C 16.578125 -5.039062 16.253906 -3.875 15.609375 -2.875 C 14.972656 -1.882812 14.082031 -1.117188 12.9375 -0.578125 C 11.800781 -0.0351562 10.476562 0.234375 8.96875 0.234375 C 7.445312 0.234375 6.113281 -0.0351562 4.96875 -0.578125 C 3.820312 -1.117188 2.929688 -1.882812 2.296875 -2.875 C 1.671875 -3.875 1.359375 -5.039062 1.359375 -6.375 L 1.359375 -17.984375 L 5.703125 -17.984375 L 5.703125 -6.765625 C 5.703125 -6.140625 5.835938 -5.582031 6.109375 -5.09375 C 6.378906 -4.613281 6.757812 -4.234375 7.25 -3.953125 C 7.75 -3.679688 8.320312 -3.546875 8.96875 -3.546875 C 9.613281 -3.546875 10.179688 -3.679688 10.671875 -3.953125 C 11.160156 -4.234375 11.539062 -4.613281 11.8125 -5.09375 C 12.09375 -5.582031 12.234375 -6.140625 12.234375 -6.765625 Z M 12.234375 -17.984375 "/></g></g><g style="fill:#006537;fill-opacity:1;"><g transform="translate(106.127095, 339.915076)"><path style="stroke:none" d="M 8 0 L 1.359375 0 L 1.359375 -17.984375 L 8 -17.984375 C 9.832031 -17.984375 11.410156 -17.625 12.734375 -16.90625 C 14.054688 -16.1875 15.078125 -15.15625 15.796875 -13.8125 C 16.515625 -12.46875 16.875 -10.863281 16.875 -9 C 16.875 -7.125 16.515625 -5.515625 15.796875 -4.171875 C 15.085938 -2.828125 14.066406 -1.796875 12.734375 -1.078125 C 11.410156 -0.359375 9.832031 0 8 0 Z M 5.703125 -3.703125 L 7.84375 -3.703125 C 8.84375 -3.703125 9.691406 -3.875 10.390625 -4.21875 C 11.097656 -4.5625 11.628906 -5.117188 11.984375 -5.890625 C 12.347656 -6.671875 12.53125 -7.707031 12.53125 -9 C 12.53125 -10.289062 12.347656 -11.320312 11.984375 -12.09375 C 11.617188 -12.863281 11.082031 -13.414062 10.375 -13.75 C 9.675781 -14.09375 8.8125 -14.265625 7.78125 -14.265625 L 5.703125 -14.265625 Z M 5.703125 -3.703125 "/></g></g><g style="fill:#006537;fill-opacity:1;"><g transform="translate(125.305614, 339.915076)"><path style="stroke:none" d=""/></g></g><g style="fill:#006537;fill-opacity:1;"><g transform="translate(131.760239, 339.915076)"><path style="stroke:none" d="M 5.25 0 L 0.578125 0 L 6.640625 -17.984375 L 12.421875 -17.984375 L 18.5 0 L 13.828125 0 L 9.609375 -13.453125 L 9.46875 -13.453125 Z M 4.625 -7.078125 L 14.390625 -7.078125 L 14.390625 -3.78125 L 4.625 -3.78125 Z M 4.625 -7.078125 "/></g></g><g style="fill:#006537;fill-opacity:1;"><g transform="translate(151.965446, 339.915076)"><path style="stroke:none" d=""/></g></g><g style="fill:#006537;fill-opacity:1;"><g transform="translate(158.420071, 339.915076)"><path style="stroke:none" d="M 1.359375 0 L 1.359375 -17.984375 L 8.859375 -17.984375 C 10.203125 -17.984375 11.328125 -17.789062 12.234375 -17.40625 C 13.148438 -17.019531 13.835938 -16.484375 14.296875 -15.796875 C 14.753906 -15.117188 14.984375 -14.332031 14.984375 -13.4375 C 14.984375 -12.75 14.835938 -12.132812 14.546875 -11.59375 C 14.265625 -11.0625 13.867188 -10.617188 13.359375 -10.265625 C 12.859375 -9.921875 12.28125 -9.675781 11.625 -9.53125 L 11.625 -9.359375 C 12.34375 -9.316406 13.007812 -9.117188 13.625 -8.765625 C 14.25 -8.410156 14.75 -7.914062 15.125 -7.28125 C 15.5 -6.644531 15.6875 -5.894531 15.6875 -5.03125 C 15.6875 -4.0625 15.441406 -3.195312 14.953125 -2.4375 C 14.460938 -1.6875 13.75 -1.09375 12.8125 -0.65625 C 11.882812 -0.21875 10.753906 0 9.421875 0 Z M 5.703125 -3.5 L 8.390625 -3.5 C 9.335938 -3.5 10.03125 -3.675781 10.46875 -4.03125 C 10.914062 -4.394531 11.140625 -4.894531 11.140625 -5.53125 C 11.140625 -5.988281 11.03125 -6.382812 10.8125 -6.71875 C 10.601562 -7.0625 10.296875 -7.320312 9.890625 -7.5 C 9.492188 -7.6875 9.019531 -7.78125 8.46875 -7.78125 L 5.703125 -7.78125 Z M 5.703125 -10.59375 L 8.109375 -10.59375 C 8.585938 -10.59375 9.007812 -10.671875 9.375 -10.828125 C 9.738281 -10.984375 10.023438 -11.207031 10.234375 -11.5 C 10.441406 -11.800781 10.546875 -12.164062 10.546875 -12.59375 C 10.546875 -13.1875 10.332031 -13.65625 9.90625 -14 C 9.476562 -14.351562 8.90625 -14.53125 8.1875 -14.53125 L 5.703125 -14.53125 Z M 5.703125 -10.59375 "/></g></g><g style="fill:#006537;fill-opacity:1;"><g transform="translate(175.966411, 339.915076)"><path style="stroke:none" d="M 5.25 0 L 0.578125 0 L 6.640625 -17.984375 L 12.421875 -17.984375 L 18.5 0 L 13.828125 0 L 9.609375 -13.453125 L 9.46875 -13.453125 Z M 4.625 -7.078125 L 14.390625 -7.078125 L 14.390625 -3.78125 L 4.625 -3.78125 Z M 4.625 -7.078125 "/></g></g><g style="fill:#006537;fill-opacity:1;"><g transform="translate(196.171617, 339.915076)"><path style="stroke:none" d="M 8.65625 -17.984375 L 12.953125 -17.984375 L 12.953125 -5.546875 C 12.941406 -4.378906 12.660156 -3.359375 12.109375 -2.484375 C 11.554688 -1.617188 10.796875 -0.945312 9.828125 -0.46875 C 8.867188 0.0078125 7.753906 0.25 6.484375 0.25 C 5.359375 0.25 4.335938 0.0507812 3.421875 -0.34375 C 2.503906 -0.738281 1.773438 -1.347656 1.234375 -2.171875 C 0.691406 -2.992188 0.425781 -4.050781 0.4375 -5.34375 L 4.75 -5.34375 C 4.769531 -4.875 4.859375 -4.476562 5.015625 -4.15625 C 5.179688 -3.832031 5.40625 -3.585938 5.6875 -3.421875 C 5.976562 -3.253906 6.320312 -3.171875 6.71875 -3.171875 C 7.132812 -3.171875 7.484375 -3.257812 7.765625 -3.4375 C 8.054688 -3.625 8.273438 -3.890625 8.421875 -4.234375 C 8.578125 -4.585938 8.65625 -5.023438 8.65625 -5.546875 Z M 8.65625 -17.984375 "/></g></g><g style="fill:#006537;fill-opacity:1;"><g transform="translate(211.611945, 339.915076)"><path style="stroke:none" d="M 18.328125 -8.984375 C 18.328125 -7.003906 17.945312 -5.328125 17.1875 -3.953125 C 16.425781 -2.578125 15.394531 -1.53125 14.09375 -0.8125 C 12.800781 -0.101562 11.351562 0.25 9.75 0.25 C 8.132812 0.25 6.675781 -0.109375 5.375 -0.828125 C 4.082031 -1.546875 3.054688 -2.59375 2.296875 -3.96875 C 1.546875 -5.34375 1.171875 -7.015625 1.171875 -8.984375 C 1.171875 -10.960938 1.546875 -12.640625 2.296875 -14.015625 C 3.054688 -15.390625 4.082031 -16.429688 5.375 -17.140625 C 6.675781 -17.859375 8.132812 -18.21875 9.75 -18.21875 C 11.351562 -18.21875 12.800781 -17.859375 14.09375 -17.140625 C 15.394531 -16.429688 16.425781 -15.390625 17.1875 -14.015625 C 17.945312 -12.640625 18.328125 -10.960938 18.328125 -8.984375 Z M 13.890625 -8.984375 C 13.890625 -10.160156 13.722656 -11.148438 13.390625 -11.953125 C 13.054688 -12.765625 12.582031 -13.375 11.96875 -13.78125 C 11.351562 -14.195312 10.613281 -14.40625 9.75 -14.40625 C 8.882812 -14.40625 8.140625 -14.195312 7.515625 -13.78125 C 6.898438 -13.375 6.425781 -12.765625 6.09375 -11.953125 C 5.757812 -11.148438 5.59375 -10.160156 5.59375 -8.984375 C 5.59375 -7.816406 5.757812 -6.828125 6.09375 -6.015625 C 6.425781 -5.210938 6.898438 -4.601562 7.515625 -4.1875 C 8.140625 -3.769531 8.882812 -3.5625 9.75 -3.5625 C 10.613281 -3.5625 11.351562 -3.769531 11.96875 -4.1875 C 12.582031 -4.601562 13.054688 -5.210938 13.390625 -6.015625 C 13.722656 -6.828125 13.890625 -7.816406 13.890625 -8.984375 Z M 13.890625 -8.984375 "/></g></g><g style="fill:#006537;fill-opacity:1;"><g transform="translate(232.238345, 339.915076)"><path style="stroke:none" d=""/></g></g><g style="fill:#006537;fill-opacity:1;"><g transform="translate(238.69297, 339.915076)"><path style="stroke:none" d="M 1.359375 0 L 1.359375 -17.984375 L 8.78125 -17.984375 C 10.132812 -17.984375 11.300781 -17.71875 12.28125 -17.1875 C 13.257812 -16.664062 14.015625 -15.9375 14.546875 -15 C 15.078125 -14.070312 15.34375 -12.988281 15.34375 -11.75 C 15.34375 -10.507812 15.070312 -9.425781 14.53125 -8.5 C 13.988281 -7.570312 13.21875 -6.851562 12.21875 -6.34375 C 11.21875 -5.832031 10.03125 -5.578125 8.65625 -5.578125 L 4.078125 -5.578125 L 4.078125 -9 L 7.84375 -9 C 8.5 -9 9.046875 -9.113281 9.484375 -9.34375 C 9.929688 -9.570312 10.269531 -9.890625 10.5 -10.296875 C 10.726562 -10.710938 10.84375 -11.195312 10.84375 -11.75 C 10.84375 -12.3125 10.726562 -12.796875 10.5 -13.203125 C 10.269531 -13.609375 9.929688 -13.921875 9.484375 -14.140625 C 9.046875 -14.359375 8.5 -14.46875 7.84375 -14.46875 L 5.703125 -14.46875 L 5.703125 0 Z M 1.359375 0 "/></g></g><g style="fill:#006537;fill-opacity:1;"><g transform="translate(255.940963, 339.915076)"><path style="stroke:none" d="M 1.359375 0 L 1.359375 -17.984375 L 8.78125 -17.984375 C 10.132812 -17.984375 11.300781 -17.738281 12.28125 -17.25 C 13.257812 -16.769531 14.015625 -16.078125 14.546875 -15.171875 C 15.078125 -14.273438 15.34375 -13.210938 15.34375 -11.984375 C 15.34375 -10.742188 15.070312 -9.6875 14.53125 -8.8125 C 13.988281 -7.945312 13.210938 -7.285156 12.203125 -6.828125 C 11.203125 -6.378906 10.019531 -6.15625 8.65625 -6.15625 L 3.953125 -6.15625 L 3.953125 -9.578125 L 7.84375 -9.578125 C 8.5 -9.578125 9.046875 -9.660156 9.484375 -9.828125 C 9.929688 -10.003906 10.269531 -10.269531 10.5 -10.625 C 10.726562 -10.976562 10.84375 -11.429688 10.84375 -11.984375 C 10.84375 -12.546875 10.726562 -13.007812 10.5 -13.375 C 10.269531 -13.738281 9.929688 -14.007812 9.484375 -14.1875 C 9.046875 -14.375 8.5 -14.46875 7.84375 -14.46875 L 5.703125 -14.46875 L 5.703125 0 Z M 11.484375 -8.21875 L 15.953125 0 L 11.21875 0 L 6.828125 -8.21875 Z M 11.484375 -8.21875 "/></g></g><g style="fill:#006537;fill-opacity:1;"><g transform="translate(273.434664, 339.915076)"><path style="stroke:none" d="M 1.359375 0 L 1.359375 -17.984375 L 13.890625 -17.984375 L 13.890625 -14.453125 L 5.703125 -14.453125 L 5.703125 -10.765625 L 13.25 -10.765625 L 13.25 -7.21875 L 5.703125 -7.21875 L 5.703125 -3.53125 L 13.890625 -3.53125 L 13.890625 0 Z M 1.359375 0 "/></g></g><g style="fill:#006537;fill-opacity:1;"><g transform="translate(289.822703, 339.915076)"><path style="stroke:none" d="M 17.671875 -11.46875 L 13.296875 -11.46875 C 13.234375 -11.914062 13.109375 -12.320312 12.921875 -12.6875 C 12.742188 -13.050781 12.503906 -13.359375 12.203125 -13.609375 C 11.910156 -13.867188 11.5625 -14.066406 11.15625 -14.203125 C 10.75 -14.335938 10.300781 -14.40625 9.8125 -14.40625 C 8.9375 -14.40625 8.179688 -14.191406 7.546875 -13.765625 C 6.921875 -13.335938 6.4375 -12.71875 6.09375 -11.90625 C 5.757812 -11.101562 5.59375 -10.128906 5.59375 -8.984375 C 5.59375 -7.796875 5.765625 -6.796875 6.109375 -5.984375 C 6.453125 -5.179688 6.9375 -4.578125 7.5625 -4.171875 C 8.1875 -3.765625 8.925781 -3.5625 9.78125 -3.5625 C 10.257812 -3.5625 10.695312 -3.625 11.09375 -3.75 C 11.488281 -3.875 11.835938 -4.050781 12.140625 -4.28125 C 12.441406 -4.519531 12.6875 -4.8125 12.875 -5.15625 C 13.070312 -5.5 13.210938 -5.882812 13.296875 -6.3125 L 17.671875 -6.296875 C 17.597656 -5.492188 17.367188 -4.707031 16.984375 -3.9375 C 16.609375 -3.164062 16.082031 -2.460938 15.40625 -1.828125 C 14.738281 -1.191406 13.925781 -0.6875 12.96875 -0.3125 C 12.019531 0.0625 10.925781 0.25 9.6875 0.25 C 8.0625 0.25 6.601562 -0.109375 5.3125 -0.828125 C 4.03125 -1.546875 3.019531 -2.59375 2.28125 -3.96875 C 1.539062 -5.34375 1.171875 -7.015625 1.171875 -8.984375 C 1.171875 -10.960938 1.546875 -12.640625 2.296875 -14.015625 C 3.054688 -15.390625 4.078125 -16.429688 5.359375 -17.140625 C 6.648438 -17.859375 8.09375 -18.21875 9.6875 -18.21875 C 10.78125 -18.21875 11.785156 -18.066406 12.703125 -17.765625 C 13.628906 -17.460938 14.441406 -17.023438 15.140625 -16.453125 C 15.847656 -15.878906 16.421875 -15.171875 16.859375 -14.328125 C 17.296875 -13.492188 17.566406 -12.539062 17.671875 -11.46875 Z M 17.671875 -11.46875 "/></g></g><g style="fill:#006537;fill-opacity:1;"><g transform="translate(309.747113, 339.915076)"><path style="stroke:none" d="M 5.703125 -17.984375 L 5.703125 0 L 1.359375 0 L 1.359375 -17.984375 Z M 5.703125 -17.984375 "/></g></g><g style="fill:#006537;fill-opacity:1;"><g transform="translate(317.947981, 339.915076)"><path style="stroke:none" d="M 18.328125 -8.984375 C 18.328125 -7.003906 17.945312 -5.328125 17.1875 -3.953125 C 16.425781 -2.578125 15.394531 -1.53125 14.09375 -0.8125 C 12.800781 -0.101562 11.351562 0.25 9.75 0.25 C 8.132812 0.25 6.675781 -0.109375 5.375 -0.828125 C 4.082031 -1.546875 3.054688 -2.59375 2.296875 -3.96875 C 1.546875 -5.34375 1.171875 -7.015625 1.171875 -8.984375 C 1.171875 -10.960938 1.546875 -12.640625 2.296875 -14.015625 C 3.054688 -15.390625 4.082031 -16.429688 5.375 -17.140625 C 6.675781 -17.859375 8.132812 -18.21875 9.75 -18.21875 C 11.351562 -18.21875 12.800781 -17.859375 14.09375 -17.140625 C 15.394531 -16.429688 16.425781 -15.390625 17.1875 -14.015625 C 17.945312 -12.640625 18.328125 -10.960938 18.328125 -8.984375 Z M 13.890625 -8.984375 C 13.890625 -10.160156 13.722656 -11.148438 13.390625 -11.953125 C 13.054688 -12.765625 12.582031 -13.375 11.96875 -13.78125 C 11.351562 -14.195312 10.613281 -14.40625 9.75 -14.40625 C 8.882812 -14.40625 8.140625 -14.195312 7.515625 -13.78125 C 6.898438 -13.375 6.425781 -12.765625 6.09375 -11.953125 C 5.757812 -11.148438 5.59375 -10.160156 5.59375 -8.984375 C 5.59375 -7.816406 5.757812 -6.828125 6.09375 -6.015625 C 6.425781 -5.210938 6.898438 -4.601562 7.515625 -4.1875 C 8.140625 -3.769531 8.882812 -3.5625 9.75 -3.5625 C 10.613281 -3.5625 11.351562 -3.769531 11.96875 -4.1875 C 12.582031 -4.601562 13.054688 -5.210938 13.390625 -6.015625 C 13.722656 -6.828125 13.890625 -7.816406 13.890625 -8.984375 Z M 13.890625 -8.984375 "/></g></g></g></svg>